<svg xmlns="http://www.w3.org/2000/svg" width="512" height="512" viewBox="0 0 512 512" version="1.1">
	<path d="M 238.500 36.127 C 199.671 40.978, 168.169 68.196, 158.902 104.904 C 157.028 112.327, 156.835 115.303, 157.250 130.404 C 158.050 159.531, 161.213 164.797, 193.857 191.346 L 211.260 205.500 186.380 205.770 C 172.696 205.919, 154.075 205.659, 145 205.193 C 130.149 204.430, 127.885 204.069, 122.349 201.580 C 118.965 200.060, 114.944 197.507, 113.412 195.908 C 110.841 193.225, 110.070 193, 103.426 193 L 96.227 193 95.615 188.750 C 92.917 170.032, 88.662 116.290, 86.965 79.500 C 86.356 66.300, 85.639 54.011, 85.372 52.190 L 84.887 48.881 80.898 53.891 C 66.798 71.599, 48.905 104.591, 41.066 127.334 C 35.794 142.629, 31.478 159.826, 28.770 176.326 C 25.815 194.328, 25.561 237.406, 28.305 255 C 33.933 291.079, 45.764 326.216, 62.053 355.226 C 83.146 392.793, 112.873 426.553, 147 451.699 C 156.007 458.336, 171.675 468.554, 174.515 469.644 C 175.353 469.966, 174.105 464.792, 171.059 455.324 C 168.437 447.171, 160.636 422.950, 153.725 401.500 C 132.061 334.269, 114.810 277.140, 106.013 243.500 C 104.287 236.900, 102.648 230.713, 102.370 229.750 C 101.893 228.095, 105.676 228, 171.933 228 L 242 228 242 211.248 L 242 194.497 237.385 192.048 C 224.238 185.074, 213.212 173.528, 209.033 162.360 C 205.861 153.881, 204.687 138.730, 205.894 121.840 C 207.058 105.560, 208.520 99.735, 214.188 88.790 C 219.499 78.537, 226.993 70.845, 235.685 66.728 C 242.279 63.605, 242.923 63.500, 255.521 63.500 C 268.184 63.500, 268.723 63.589, 275.127 66.742 C 296.877 77.449, 307.617 103.542, 305.577 140.719 C 304.855 153.876, 303.255 161.603, 299.871 168.280 C 296.753 174.431, 284.600 185.864, 276.250 190.500 L 269.046 194.500 269.023 211.250 L 269 228 339.067 228 C 405.324 228, 409.107 228.095, 408.630 229.750 C 408.352 230.713, 406.714 236.900, 404.989 243.500 C 396.580 275.669, 377.863 337.528, 356.275 404.500 C 349.360 425.950, 341.789 449.462, 339.449 456.750 C 337.110 464.038, 335.452 470, 335.764 470 C 336.076 470, 339.745 467.887, 343.916 465.305 C 411.851 423.250, 461.411 354.170, 478.367 277.897 C 483.501 254.806, 484.464 245.293, 484.483 217.500 C 484.501 190.261, 483.874 183.471, 479.320 161.539 C 474.464 138.151, 466.436 115.468, 455.335 93.764 C 449.350 82.064, 434.403 58.951, 428.651 52.500 L 425.083 48.500 425.042 56.086 C 424.932 76.096, 419.647 151.985, 416.483 179 C 415.677 185.875, 415.014 191.838, 415.009 192.250 C 415.004 192.662, 411.709 193, 407.687 193 C 400.919 193, 400.167 193.216, 397.588 195.908 C 396.056 197.507, 392.035 200.070, 388.651 201.602 C 382.692 204.302, 381.754 204.415, 358.532 205.217 C 345.349 205.672, 326.706 205.922, 317.103 205.772 L 299.642 205.500 317.178 191.315 C 343.014 170.417, 349.282 162.595, 352.551 147.174 C 354.760 136.749, 354.449 113.442, 351.960 103 C 347.998 86.372, 336.376 68.152, 322.293 56.489 C 313.968 49.595, 298.214 41.655, 287.538 38.973 C 272.537 35.205, 254.338 34.149, 238.500 36.127" stroke="none" fill="black" fill-rule="evenodd"/>
</svg>