<svg id="Layer_1" data-name="Layer 1" xmlns="http://www.w3.org/2000/svg" viewBox="0 0 146.2 155"><defs><style>.cls-1{fill:#717171;}.cls-1,.cls-2{fill-rule:evenodd;}.cls-2{fill:#ffcb28;}</style></defs><path class="cls-1" d="M109.2-72.8a18.5,18.5,0,0,0,6.3-1v-6a16.5,16.5,0,0,0-6.8-1.3c-3.4,0-5.8,1.1-5.8,3.9s2,4.4,6.3,4.4m10.5-12.7v14.1A25.9,25.9,0,0,1,109.1-69c-7.5,0-10.6-3.5-10.6-8s4.4-7.8,10.2-7.8a18.8,18.8,0,0,1,6.8,1.2v-1.9c0-3.7-2.4-5.7-6.7-5.7a12,12,0,0,0-7.1,2.3,4,4,0,0,1-2.1-2.8,14.1,14.1,0,0,1,9.4-3.4c5.9,0,10.7,2.7,10.7,9.6m26,9.6V-89.6a9.3,9.3,0,0,0-5.6-1.6,8.4,8.4,0,0,0-8.8,8.8c0,5.2,3.6,8.4,8.8,8.4a8.3,8.3,0,0,0,5.6-1.9m4.2-16v21.5c0,6.2-4.7,10.9-11.7,10.9-4.4,0-8.3-1.4-10.8-4.3a5,5,0,0,1,2.7-2.9c1.6,1.9,4.1,3.4,8.1,3.4s7.5-3.1,7.5-7.1v-1.4a12.3,12.3,0,0,1-5.9,1.5c-7,0-12.9-4.6-12.9-12.1s5.6-12.7,13.2-12.7a16,16,0,0,1,9.8,3.2M159-69.4V-94.1l2.2-.2,2.1.2v24.7l-2.1.2-2.2-.2m-.9-31.9a3,3,0,0,1,3.1-3,2.9,2.9,0,0,1,2.9,3,2.9,2.9,0,0,1-2.9,3,3,3,0,0,1-3.1-3m14.7,31.6v-34.4l2.1-.2,2.2.2v34.4l-2.2.2-2.1-.2m13.7.3V-94.1l2.2-.2,2.1.2v24.7l-2.1.2-2.2-.2m-.8-31.9a2.9,2.9,0,0,1,3-3,2.9,2.9,0,0,1,2.9,3,2.9,2.9,0,0,1-2.9,3,2.9,2.9,0,0,1-3-3m31.8,30a10.5,10.5,0,0,1-6.9,2.6c-5,0-8.6-2.3-8.6-8.2V-90.4h-4.2a4.7,4.7,0,0,1-.2-1.7,4.1,4.1,0,0,1,.2-1.6H202v-6.7l2.1-.2,2.1.2v6.7H216a7.8,7.8,0,0,1,.2,1.6,8.8,8.8,0,0,1-.2,1.7h-9.8v12.6c0,4.5,2.1,5.4,4.7,5.4a8.2,8.2,0,0,0,4.8-1.9,5,5,0,0,1,1.8,3m27.2-22.3c-4.1,15.6-8.8,24.9-18,34.9a4,4,0,0,1-2.9-2.6,56.4,56.4,0,0,0,6.6-8.6,91.8,91.8,0,0,1-9.9-23.9,7.8,7.8,0,0,1,2.6-.4l1.9.2a96.9,96.9,0,0,0,7.6,19.8l.4.8.3-.8c3.5-6.5,5.4-12.9,7.1-19.8l1.7-.2a6.2,6.2,0,0,1,2.6.6" transform="translate(-98.5 213.7)"/><path class="cls-2" d="M180.7-133.9H142.3l29-50,28.9,50,8.5,14.9h17.4l-54.8-94.7L116.4-119h71.1Z" transform="translate(-98.5 213.7)"/></svg>