<svg id="Layer_1" data-name="Layer 1" xmlns="http://www.w3.org/2000/svg" viewBox="0 0 391.2 407.9"><defs><style>.cls-1{fill:#fff;stroke:#231f20;stroke-miterlimit:10;stroke-width:20px;}</style></defs><path class="cls-1" d="M307.9,3.4S306,77,300,129.1h-7.5l-1.9,1.2c-2.1,5.5-4,4.7-5,5.5a16.9,16.9,0,0,1-7.5,2.3l-29,.3,2.1-1.7c20-16.7,21.6-31.3,21.6-51.9,0-18.5-6.6-35.5-19.8-50.3C237.2,16.7,215.1,7.7,187.3,7.7c-25.7,0-46.5,7.9-62,23.4s-23.8,34.1-23.8,54.6,1.6,33.4,20.6,50.1l3.3,2.7-27-.3c-5.6-.3-8.3-1.5-9.6-2.4s-3.2-.2-5-5.3L82,129.1H74.3C68.2,77,66.3,3.4,66.3,3.4c-48.8,46-76.4,120.7-60,199.2S79,343.3,143.1,370.7c0,0-44.2-132.2-60.3-194.9H187.2V131.4l-7.9-1.5c-7-3.7-12.3-8-15.6-12.8-4.9-6.9-4.9-15.4-4.8-26.3.1-1.4.1-2.8.1-4.3,0-10.7,2.6-19.8,8-27.4s11.4-10.3,20.2-10.3,14.8,3.3,19.9,10,8.3,16.8,8.3,28.4v4c.1,11,.1,19.6-4.8,26.4q-4.9,6.5-15.6,12.3l-7.8,1.6v44.3H291.5c-16.2,62.7-60.3,194.9-60.3,194.9,64-27.4,120.4-89.6,136.8-168.1S356.7,49.4,307.9,3.4Z" transform="translate(8.4 19.2)"/></svg>