<svg id="Layer_1" data-name="Layer 1" xmlns="http://www.w3.org/2000/svg" viewBox="0 0 46.3 46.4"><defs><style>.cls-1{fill:#fff;}.cls-2{fill:#c9fa4b;}</style></defs><path class="cls-1" d="M44.7,21.8c1,0-5.7-5.1-5-5.2L23.6.6c-.2-.1-.3.3-.4.1s0-.1,0,0-1.6,1.7-1.3.8C16.7,7,5.6,17.2.7,23.2c4.6,5.9,15.5,15.7,22.2,22.6,1.4.1,5.2-4.6,7-6.3s13.2-13.2,16-16c0-.1-.4-.4-.1-.2s-.2-.1,0-.2S44.7,21.9,44.7,21.8Z" transform="translate(-0.1 0)"/><path class="cls-2" d="M10.7,26.5h0L5.3,28.9h0L.9,24.6H1l9.7,2Zm.6-1.3h0L.1,22.8h0l6.2-6.1h.1l5.4,7.8h0l-.5.6ZM13.6,9.5c0-.1-.1-.1,0-.1h0L23,0h.1l4,4h0l-4.9,7.5h-.1a2.2,2.2,0,0,0-2.2.4h-.1ZM13,23.8,7.4,15.6h0l5-5h.1l6.6,2.8h0a2.6,2.6,0,0,0,.6,2.1c.1,0,.1.1,0,.1l-5.2,8.2Zm1.8,5L25.3,44h0L23,46.4h-.1L9.9,33.5h0L12.7,29h1A2,2,0,0,0,14.8,28.8Zm-3.2-.7h0L8.9,32.3H8.8L6.4,30h.1l4.9-2.2h0C11.5,27.9,11.6,28,11.6,28.1Zm4.8-1.9c0-.2-.1-.3-.1-.5h0l14.1-6h0l.3.2h0l-1.2,7.5h-.1a2.5,2.5,0,0,0-1.6,1.1h0L16.4,26.3Zm12.4,5.2h0L27,42.4h0l-.6.6h-.1L15.9,28h0c0-.1.1-.2.1-.3h.1L27.6,30h0A2.4,2.4,0,0,0,28.8,31.4Zm8.6.6h0l-8.5,8.5h-.1l1.4-9.1h.1a2.2,2.2,0,0,0,.9-.7h.1ZM29.8,17.8h0v.5h-.1L15.8,24.4h-.1l5.2-8.1h.5a2.3,2.3,0,0,0,1.9-1h.1Zm15.4,6.5h0l-6.5,6.5h0l-7.1-1.5h0a1.6,1.6,0,0,0-.8-1.3h0l1.3-7.6h0a1.6,1.6,0,0,0,1.4-.8h0Zm1.2-1.1h-.1l-12.1-5h0l4.9-2.1h0l7.3,7.2ZM23.3,12.6h0l4.8-7.4h.1l4.2,4.2h0l-1.1,6.8h0a1.1,1.1,0,0,0-.7.3h-.1l-6.7-2.7h-.1A1.9,1.9,0,0,0,23.3,12.6Zm9.4,3.8h0l.9-5.7h.1l4.2,4.1h0l-4.5,2h-.1A.9.9,0,0,0,32.7,16.4Z" transform="translate(-0.1 0)"/></svg>