<svg id="Layer_1" data-name="Layer 1" xmlns="http://www.w3.org/2000/svg" viewBox="0 0 2194 1953.8"><defs><style>.cls-1{fill:#61dafb;}</style></defs><path class="cls-1" d="M2194,1250.2c0-145.3-182-283.1-461.1-368.5,64.4-284.4,35.8-510.7-90.3-583.1-29.1-17-63.1-25.1-100.2-25.1v99.7c20.6,0,37.1,4.1,51,11.7,60.8,34.9,87.2,167.7,66.6,338.5-4.9,42.1-12.9,86.3-22.8,131.5-87.6-21.5-183.3-38-283.9-48.8-60.4-82.7-123-157.8-186.1-223.6C1313,447,1449.8,372.8,1542.9,372.8V273.1c-123,0-284,87.6-446.8,239.7C933.3,361.6,772.3,274.9,649.3,274.9v99.7c92.6,0,229.9,73.8,375.7,208.4A2114.5,2114.5,0,0,0,840.3,806.1c-101.1,10.8-196.8,27.3-284.4,49.2-10.3-44.7-17.9-88.1-23.3-129.7-21-170.8,4.9-303.6,65.3-338.9,13.4-8.1,30.9-11.7,51.4-11.7V275.3c-37.5,0-71.5,8.1-101,25.1-125.7,72.4-153.9,298.2-89,581.8C181.1,968,0,1105.3,0,1250.2s182,283.1,461.1,368.5c-64.4,284.4-35.8,510.7,90.3,583.2,29.1,17,63.1,25,100.6,25,123,0,284-87.6,446.8-239.7,162.8,151.2,323.8,237.9,446.7,237.9,37.6,0,71.6-8,101.1-25,125.7-72.5,153.9-298.3,89-581.8,277.3-85.4,458.4-223.2,458.4-368.1ZM1611.7,951.9c-16.5,57.7-37.1,117.2-60.3,176.7-18.4-35.8-37.6-71.6-58.6-107.3s-42.5-70.7-64.4-104.7c63.5,9.4,124.8,21,183.3,35.3Zm-204.8,476.3c-34.9,60.4-70.6,117.6-107.8,170.8-66.6,5.9-134.1,9-202.1,9s-135.1-3.1-201.2-8.5c-37.2-53.2-73.4-110-108.3-169.9s-64.8-118.1-93-178c27.7-60,59-119.9,92.6-178.5,34.9-60.3,70.6-117.6,107.8-170.8,66.6-5.8,134.1-8.9,202.1-8.9s135.1,3.1,201.2,8.4q55.8,80,108.3,170c34,58.6,64.8,118.1,93,178-28.2,59.9-59,119.8-92.6,178.4Zm144.5-58.1c24.1,59.9,44.7,119.8,61.7,178-58.6,14.3-120.3,26.3-184.3,35.7,21.9-34.4,43.9-69.7,64.4-105.9s39.8-72,58.2-107.8Zm-453.5,477.1a1812.4,1812.4,0,0,1-124.3-143.1c40.2,1.8,81.4,3.2,123,3.2s83.6-.9,124.3-3.2A1745.7,1745.7,0,0,1,1097.9,1847.2ZM765.2,1583.8c-63.5-9.4-124.8-21-183.4-35.3,16.6-57.7,37.1-117.2,60.4-176.6,18.3,35.7,37.6,71.5,58.6,107.3S743.3,1549.9,765.2,1583.8Zm330.5-930.6c41.5,42.9,83.1,90.8,124.3,143.1-40.3-1.8-81.4-3.1-123-3.1s-83.6.9-124.3,3.1A1723.9,1723.9,0,0,1,1095.7,653.2Zm-331,263.4c-21.9,34.4-43.8,69.8-64.4,106s-39.8,71.5-58.1,107.3c-24.2-59.9-44.7-119.8-61.7-178,58.6-13.8,120.3-25.9,184.2-35.3ZM360,1476.5C201.7,1409,99.3,1320.4,99.3,1250.2S201.7,1091,360,1023.9c38.5-16.5,80.5-31.3,123.9-45.1,25.5,87.6,59,178.9,100.6,272.3-41.1,93-74.2,183.8-99.3,271A1321.5,1321.5,0,0,1,360,1476.5Zm240.6,639.1c-60.8-34.9-87.2-167.7-66.6-338.6,4.9-42,12.9-86.3,22.8-131.4,87.6,21.4,183.3,38,283.9,48.7,60.4,82.7,123,157.9,186.1,223.6C881,2053.4,744.2,2127.6,651.1,2127.6c-20.1-.4-37.1-4.4-50.5-12Zm1060.8-340.8c21,170.8-4.9,303.7-65.3,339-13.4,8-30.9,11.6-51.4,11.6-92.6,0-229.9-73.8-375.7-208.4a2114.5,2114.5,0,0,0,184.7-223.1c101.1-10.8,196.8-27.3,284.4-49.2C1648.4,1689.8,1656.5,1733.2,1661.4,1774.8Zm172.2-298.3c-38.5,16.6-80.5,31.3-123.9,45.2-25.5-87.7-59.1-178.9-100.6-272.4,41.1-93,74.2-183.8,99.2-271,44.3,13.9,86.3,29.1,125.7,45.6,158.3,67.6,260.7,156.1,260.7,226.3s-102.8,159.2-261.1,226.3Z" transform="translate(0 -273.1)"/><circle class="cls-1" cx="1096.6" cy="977.1" r="204.4"/></svg>