<svg id="Layer_1" data-name="Layer 1" xmlns="http://www.w3.org/2000/svg" viewBox="0 0 372.2 369.3"><defs><style>.cls-1{stroke:#231f20;stroke-miterlimit:10;}</style></defs><path class="cls-1" d="M427.1,154.1s-1.9,73.6-7.9,125.7h-7.5l-1.9,5.2c-2.1,5.5-4,7.7-5,8.5s-4.1,2-7.5,2.3l-29,.3,2.1-1.7c20-16.7,21.6-38.3,21.6-58.9,0-18.5-6.6-35.5-19.8-50.3-15.8-17.8-37.9-26.8-65.7-26.8-25.7,0-46.5,7.9-62,23.4s-23.8,34.1-23.8,54.6,1.6,40.4,20.6,57.1l3.3,2.7-27-.3c-5.6-.3-8.3-1.5-9.6-2.4s-3.2-3.2-5-8.3l-1.8-5.4h-7.7c-6.1-52.1-8-125.7-8-125.7-48.8,46-76.4,120.7-60,199.2S198.2,494,262.3,521.4c0,0-44.2-132.2-60.3-194.9h97.4V299.8l-4.2-2.2c-10.1-5.3-17.7-11.4-22.4-18.2-7-9.9-6.9-22.1-6.8-37.6.1-2,.1-4,.1-6.1,0-15.3,3.8-28.4,11.4-39.2s16.4-14.7,28.9-14.7,21.1,4.7,28.5,14.3,11.8,23.9,11.8,40.6v5.6c.1,15.7.2,28.1-6.9,37.7-4.6,6.2-12.1,12.1-22.2,17.7l-4.2,2.2v26.6h97.3c-16.2,62.7-60.3,194.9-60.3,194.9,64-27.4,120.4-89.6,136.8-168.1S475.9,200.1,427.1,154.1Z" transform="translate(-120.2 -153)"/></svg>