<svg id="Layer_1" data-name="Layer 1" xmlns="http://www.w3.org/2000/svg" viewBox="0 0 2413.7 2484.8"><defs><style>.cls-1{fill:#fff;}.cls-2{fill:#ff2d20;}</style></defs><path class="cls-1" d="M2381.9,588.1h0c-.3-1.1-.9-2.1-1.3-3.2a43.5,43.5,0,0,0-2.5-5.9,26,26,0,0,0-2.5-3.3c-1.2-1.5-2.1-3.1-3.4-4.5s-2.5-1.9-3.7-2.8a33.2,33.2,0,0,0-4.2-3.2L1909.8,303.5a37.8,37.8,0,0,0-37.9,0L1417.3,565.2h0c-1.5.9-2.7,2.1-4.2,3.2s-2.6,1.8-3.7,2.9a51.2,51.2,0,0,0-3.4,4.4,40.8,40.8,0,0,0-2.5,3.3,43.5,43.5,0,0,0-2.5,5.9c-.4,1.1-1,2.1-1.3,3.2a40.6,40.6,0,0,0-1.3,9.8V1095l-378.8,218.1V340.7a36.2,36.2,0,0,0-1.3-9.8,32.4,32.4,0,0,0-1.3-3.3,48.3,48.3,0,0,0-2.5-5.8,36.9,36.9,0,0,0-2.5-3.4,51.2,51.2,0,0,0-3.4-4.4c-1.1-1.1-2.5-1.9-3.7-2.9s-2.7-2.2-4.2-3.2h-.1L546.1,46.2a38.2,38.2,0,0,0-37.9,0L53.7,307.9h0a33.9,33.9,0,0,0-4.2,3.3,32.7,32.7,0,0,0-3.7,2.8,36.8,36.8,0,0,0-3.4,4.4c-.8,1.2-1.9,2.2-2.6,3.4a41.7,41.7,0,0,0-2.4,5.8c-.4,1.1-1,2.1-1.3,3.2a36.4,36.4,0,0,0-1.3,9.9V1897.6a37.8,37.8,0,0,0,19,32.8l909,523.4a36.6,36.6,0,0,0,6.2,2.5c1,.4,2,1,3,1.3a39.8,39.8,0,0,0,19.4,0l2.5-1.1a39.1,39.1,0,0,0,6.7-2.7l909.2-523.4a38,38,0,0,0,18.9-32.8V1400.5l435.5-250.7a37.9,37.9,0,0,0,19-32.9V598A36.9,36.9,0,0,0,2381.9,588.1Z" transform="translate(-2.2 -7.6)"/><path class="cls-2" d="M2414.5,569.7a39.1,39.1,0,0,1,1.3,10.2v533.3a38.7,38.7,0,0,1-19.5,33.8l-447.6,257.7v510.9a38.9,38.9,0,0,1-19.5,33.7L994.8,2487.2a44.3,44.3,0,0,1-6.8,2.8,21.8,21.8,0,0,1-2.7,1.1,39.5,39.5,0,0,1-19.9,0,27.1,27.1,0,0,1-3-1.3,32.7,32.7,0,0,1-6.5-2.6L21.7,1949.3a38.8,38.8,0,0,1-19.5-33.7V315.5a38.6,38.6,0,0,1,1.3-10.2c.3-1.1,1-2.1,1.4-3.3a34.6,34.6,0,0,1,2.5-6,21.8,21.8,0,0,1,2.6-3.4,39.8,39.8,0,0,1,3.5-4.6c1.1-1.1,2.6-1.9,3.8-2.9a27.3,27.3,0,0,1,4.3-3.3h0l467.2-269a39.1,39.1,0,0,1,38.9,0l467.1,269h.1a27.3,27.3,0,0,1,4.3,3.3,27.2,27.2,0,0,1,3.8,2.9,39.8,39.8,0,0,1,3.5,4.6,30.4,30.4,0,0,1,2.6,3.4,34.6,34.6,0,0,1,2.5,6c.4,1.2,1.1,2.2,1.4,3.3a39.8,39.8,0,0,1,1.4,10.2v999.4l389.2-224.2V579.8a38.5,38.5,0,0,1,1.4-10.1c.3-1.1,1-2.2,1.4-3.3a34.6,34.6,0,0,1,2.5-6c.7-1.3,1.8-2.3,2.6-3.5a49.4,49.4,0,0,1,3.5-4.5,38,38,0,0,1,3.8-2.9,32.8,32.8,0,0,1,4.3-3.3h0l467.2-269a39.1,39.1,0,0,1,38.9,0l467.2,269a27.3,27.3,0,0,1,4.3,3.3,34.7,34.7,0,0,1,3.8,2.9c1.3,1.4,2.3,3,3.5,4.5s1.9,2.2,2.6,3.5a44.7,44.7,0,0,1,2.5,6,23.3,23.3,0,0,1,1.4,3.3Zm-76.5,521V647.2l-163.5,94.1L1948.7,871.4v443.5L2338,1090.7Zm-467.2,802.4V1449.2l-222.1,126.9-634.4,362.1v448ZM80,382.8V1893.1l856.4,493V1938.2L489,1685h-.3a42.3,42.3,0,0,1-4.2-3.2c-1.2-1-2.6-1.8-3.7-2.8v-.2a44.7,44.7,0,0,1-3.2-4.1,46.8,46.8,0,0,1-2.9-3.7v-.2a31.3,31.3,0,0,1-2-4.9,23,23,0,0,1-1.8-4.3h0a35.6,35.6,0,0,1-.8-5.7,31.8,31.8,0,0,1-.6-4.3V607L243.5,476.9,80,382.9ZM508.3,91.5l-389.2,224,389.1,224L897.4,315.4,508.2,91.5ZM710.7,1489.7l225.8-130V382.8L773,476.9,547.2,607v976.8ZM1909.8,355.8,1520.6,579.9l389.2,224,389.1-224.1Zm-39,515.6L1645,741.3l-163.5-94.1v443.5l225.8,130,163.5,94.2ZM975.3,1870.8,1546.2,1545l285.3-162.9-388.9-223.9L994.9,1416,586.8,1650.9Z" transform="translate(-2.2 -7.6)"/></svg>