<svg id="Layer_1" data-name="Layer 1" xmlns="http://www.w3.org/2000/svg" viewBox="0 0 124.6 124.6"><defs><style>.cls-1{fill:#fff;}.cls-2{fill:#21759b;}</style></defs><path class="cls-1" d="M67-.3A61.3,61.3,0,1,0,128.2,61,61.4,61.4,0,0,0,67-.3Z" transform="translate(-4.7 1.3)"/><path class="cls-2" d="M13.5,61a53.6,53.6,0,0,0,30.1,48.1L18.1,39.2A54.6,54.6,0,0,0,13.5,61Z" transform="translate(-4.7 1.3)"/><path class="cls-2" d="M103,58.3a27.9,27.9,0,0,0-4.4-14.8c-2.7-4.4-5.2-8.1-5.2-12.5s3.7-9.5,9-9.5h.6a53.3,53.3,0,0,0-80.7,10h3.4C31.3,31.7,40,31,40,31c2.9-.2,3.2,4.1.3,4.4,0,0-2.9.4-6.1.5L53.7,93.8,65.4,58.7,57,35.9c-2.8-.1-5.6-.5-5.6-.5-2.8-.2-2.5-4.6.4-4.4,0,0,8.8.7,14.1.7S80.1,31,80.1,31c2.9-.2,3.2,4.1.3,4.4,0,0-2.9.4-6.1.5L93.6,93.4,99,75.6C101.3,68.2,103,62.9,103,58.3Z" transform="translate(-4.7 1.3)"/><path class="cls-2" d="M67.9,65.6l-16,46.6A53.5,53.5,0,0,0,67,114.4a54.3,54.3,0,0,0,17.7-3l-.4-.7Z" transform="translate(-4.7 1.3)"/><path class="cls-2" d="M113.9,35.3a48,48,0,0,1,.3,5.5A49.5,49.5,0,0,1,110.1,60L93.8,107.2A53.5,53.5,0,0,0,120.4,61,54.1,54.1,0,0,0,113.9,35.3Z" transform="translate(-4.7 1.3)"/><path class="cls-2" d="M67-1.3A62.3,62.3,0,1,0,129.3,61,62.3,62.3,0,0,0,67-1.3Zm0,121.7A59.5,59.5,0,1,1,126.4,61,59.5,59.5,0,0,1,67,120.4Z" transform="translate(-4.7 1.3)"/></svg>