<svg id="Layer_1" data-name="Layer 1" xmlns="http://www.w3.org/2000/svg" viewBox="0 0 1919.5 728.2"><defs><style>.cls-1{fill:#010101;}</style></defs><path class="cls-1" d="M1324.5,385q0,249.2,0,498.4c.1,3.9-.4,5.2-4.9,5.2H-594.3c-1-2.1-.5-4.3-.5-6.4V162.9c.4-3.7,2.8-2.4,4.7-1.6,4.7,2.1,7.4,6,8.9,10.7.6,2.1,1,4.2,1.7,6.3s2.7,5.1,6.2,5.6a31.6,31.6,0,0,1,9.3,3.4c3.7,1.2,7.6,1.8,11.1,4a16.6,16.6,0,0,1,4.8,4.7c2.9,4.5,6.1,8.5,12.4,7.2,1.2-.2,2.5.8,3.8,1s2.6.2,3.9.5c7.1,4.5,14.3,8.7,19.3,15.7a14,14,0,0,0,5.5,4.1,25.7,25.7,0,0,1,5.7,5.7,74.3,74.3,0,0,1,8.4,18.9c.3,7,.3,7.1,7,5.4,2.7-.8,4.8.6,7,1.6a3.9,3.9,0,0,1,1,.8c1.2,2.9,1.6,6.2,4.8,7.8a4.4,4.4,0,0,1,.8,1.1c1.5,8.4,6.3,14,14.2,16.9,3.3,1.2,5.2,3.2,5.9,6.6l1.2,1.8a16.4,16.4,0,0,1,3.1,8.8c.2,3.9,1.5,7.5,2.7,11.1s2.7,4.2,5.6,4.7c7.7,1.2,8.5,2,10,9.5s3.6,12.4,10.5,15.2c1.7.7,2.6,2.5,4.2,3.5a4.3,4.3,0,0,1,1,.9c.9,4.3,4.3,5.9,7.7,7.7l.9,1c.7,1.9,2.3,2.1,4,2.3s3.2.5,3.9,2.3a8.8,8.8,0,0,1,.5,4.8c-.7,4.4,1.4,6.5,5.5,6.6s6,2.1,8.6,4.2l1.2.8c3.8,2.2,8.1,3.7,11.4,6.8,1.5,1.3,2.1.4,3.1-.8,3.3-3.7,5.8-3.5,8.9.3.6.8,1.1,1.7,1.8,2.5,2.5,2.9,3.5,2.6,5.1-1.2s6.9-5.2,11.4-4a82,82,0,0,0,17.1,2.4c5,.3,8.6,2.4,10.2,7.3a6.8,6.8,0,0,0,5.5,5c5.4,1,10.3,3.6,15.6,5,6.8,1.9,9.5,7.7,12.2,13.5.7,8,4.6,14.5,9.8,20.3.7,1,1.5,1.9,2.2,2.8a4.9,4.9,0,0,1,.9,3.3c-1.2,4.6,3.1,7.3,3.9,11.1.4,1,.5,2.2,1.4,2.7,5.9,3.2,9.7,8.9,15.1,12.7,3,2.6,6.1,5,8.6,8.1a11.2,11.2,0,0,1,6.1,9.3,4.4,4.4,0,0,0,4.5,4.2l1.4.3c4,.4,7.8,1.5,11.7,1.4a10,10,0,0,0,6.9-2.2c5.1-3.6,9.1-.4,13.3,2l1.5.2a8.9,8.9,0,0,1,2.3,0c2.1.1,3.7,1.1,5.5,2,5.7,3.1,11.4,5,17.8,1.1,4.5-2.8,9.5-1.1,12.3,3.5a10.7,10.7,0,0,0,4.7,4.2c8.2,3.4,16.5,6,25.6,5.2l1.5.2c4,.8,8.1,1.1,12.1,2.2s6.7-.6,9.8-2c.9-.4,2-.5,2.7-1.3,5.1-5.9,11.9-9.7,18.7-13.5a12.6,12.6,0,0,1,2.6-1.3,11.7,11.7,0,0,0,4.6-1.7c3.7-2.6,7.6-4,12.5-2s8-1.9,11.8-3.8l1.3-.7c1.6-.9,3.4-1.7,4.5-3.1,6-8.4,14.2-6.4,22.3-4.9l1.2.9c1.1,1.9,2,4.1,4.5,4.7s5.2,2,7.6,3.5a18.2,18.2,0,0,0,10.6,7.4c5.9,1.7,12.3,3,16.8,8.1,1.2,3.1,3.9,5,6.3,6.7s6.3,5.3,9.5,8a110.9,110.9,0,0,1,26.9,25.6c3.1,4.3,5.6,9.2,9.9,12.5,7.6,3.8,11.9,11.2,18.3,16.3,3.4,3.7,7.8,6.1,11.6,9.3s4.9,1.9,7.5.9a12.7,12.7,0,0,1,10.1.5c5,2.7,9.5,7,16,5.4a9,9,0,0,0,3.8-2.9c4.6-4.7,7.1-5.1,13.4-2.1,2.9,5.5,8,5.2,13.1,4.9a20.9,20.9,0,0,1,11,2.7c1.9,1.4,3.4,3.4,6,3.3,4.9,0,7.6,2.9,8.7,7.3s3.3,5.6,7.7,5.9,10.9.4,16.1,2.1c6.9,1.1,12.7,6,20,5.7h3.1a14.5,14.5,0,0,1,9.2,3,19.3,19.3,0,0,0,7.5,3.6c9.8,4.1,20.2,3.4,30.4,3.6,3.5,2,7.1,1.5,10.8.9,5.6,0,11.2-.3,16.8-.2a22.6,22.6,0,0,1,13.8,4.1c5.2,4.4,11.4,6.8,18,8.4a21.9,21.9,0,0,1,5.4,3l1.5,1.2a15.6,15.6,0,0,1,2,1.6,14.9,14.9,0,0,0,2,1.5c7,4.2,13.2,9.4,20.3,13.3,5,3.8,10.8,6.4,16.4,9.3s9-.5,13.5-.8,7.1-1.3,10.7-2l3.2-1.3c5.4-3.8,11.8-5.8,17.2-9.5,7.1-3.3,14.3-6.3,20.7-10.9l4.9-2.5c5-3,10.7-4.8,15.5-8.2l1.1-.9a26,26,0,0,0,7.3-5.9,39.9,39.9,0,0,1,17.8-11.8c2.4-.4,4.7-.8,6.6-2.8s6.8-3.1,10.3-4.4a55.8,55.8,0,0,0,10.3-4.6c8.2-5,16.7-9.5,24-15.9a9.4,9.4,0,0,1,3.2-1.5c3.9-2.6,7.5-5.7,11.8-7.6a17.1,17.1,0,0,1,2.3-1.3c3.2-2.3,6.8-3.8,10-6.1,9.2-5.3,18.2-10.9,27.6-15.9,3.7-1.9,5.6-4.5,5.3-8.7a18,18,0,0,1,3.7-12.2c2.6-2.2,5.8-3.3,8.4-5.6l1.3-.6c7.2-2.1,13.8-5.6,20.7-8.4,1.3-.6,2.7-1,4-1.7,6.2-1.6,12.2-3.9,18.3-5.7,7.4-3.7,15.3-6.5,21.8-11.7l1.1-.9c2.1-1.6,4.9-2,7.2-3.4a3.5,3.5,0,0,1,1.2-.7l1.3-.4c3-.3,5.4-1.2,5-4.9a14.9,14.9,0,0,1,.2-2.1c2.6-7.2,8.7-11.7,13.1-17.5a7,7,0,0,1,1.6-1.4c7.8-4.8,15.2-10.4,24.2-12.9,5.5-.6,8.8-5.7,14-6.8a30.2,30.2,0,0,0,6-2c5.5-1.7,9.2-6.5,14.7-8.1l1.3-.4c5.3-5,11.9-6.7,18.8-7.9,2.5-.5,4.4-2.3,6.2-3.9l1.2-.8a37.7,37.7,0,0,1,11.3-3.8,11.9,11.9,0,0,0,3.3-2.2,22.3,22.3,0,0,1,5.4-3.1c2.8-1.1,5.6-2,8.4-2.9s5.2,0,7.7-1.1l1.7-.3c2.9-.4,5.5,1.1,8.3,1.4,13.1,1.3,26.2,4.2,39.5,2.6,2.7-.2,5.2-1.2,7.9-1a48.4,48.4,0,0,1,14.7.6,24.8,24.8,0,0,0,13.2-1.1l1.6-.4c4.4,0,8.8-.1,13-1.9,10.2-2,20.3-2.1,30.4.9s20.3,3.7,29.4,9c5.8,2.2,11-.8,16.4-1.9a46.9,46.9,0,0,0,9.7-2.2c2.9-.9,5.7-1.9,8.7-1.9,17.6-.1,34.2-6,51.4-8.4,7.2-1,14.1-3.8,21.5-1.8a12.2,12.2,0,0,1,4.9,1.2c1.2.6,2.6.8,3.7,1.6,9.6,6.6,20,5.7,30.5,3a45.2,45.2,0,0,1,13.7-1.7c1.9,0,3.7.1,5.5-.8a10.9,10.9,0,0,0,2.4-.7,32.5,32.5,0,0,1,13-2.6c9.4.2,18.9-.2,28.3-.2a19.9,19.9,0,0,1,5.4.6c12,6.2,24.4,7.4,37.3,3.3l1.3-.7a70.2,70.2,0,0,0,12.8-4.8c3.9-1.8,7.9-3.3,12.2-3.3l1.3-.4a10.9,10.9,0,0,0,5-1.9,12.1,12.1,0,0,0,2-.9c6-6.3,14-6.4,21.8-7.4A3.8,3.8,0,0,1,1324.5,385Z" transform="translate(594.9 -160.4)"/></svg>