<svg id="Layer_1" data-name="Layer 1" xmlns="http://www.w3.org/2000/svg" viewBox="0 0 279.1 298.6"><defs><style>.cls-1{fill:#fff;}</style></defs><path class="cls-1" d="M277.7,223c-5.3-4.9-4.6-11.1-4.8-17.1-.7-20.3.3-40.7-1-61a88.5,88.5,0,0,0-3-17.7c-.9-2.9-1.7-5.4-5.4-7s.2-6-2.1-9.1a116.2,116.2,0,0,1-21.7-47.8c-.8-3.9-2.4-7.7-5.9-10.1a22,22,0,0,1-6.6-7.3c-7.5-12-16.4-22.7-28.7-30a37.4,37.4,0,0,1-5.9-4.6c-4.9-4.4-10-8.3-16.8-9.4A2.1,2.1,0,0,1,173.9,0h-20c-.5,1.4-1.8,1.3-2.9,1.5-20.4,4.1-40.8,7.6-60.6,14.4C84.3,18,78.3,20,73.8,24.6,59.5,39.3,47.5,55.9,33.7,71,29,76.1,25.5,82.1,20.9,88.4c-1.6-4.2.5-8.9-4.8-10.8,0,2.4.1,4.5,0,6.7-.4,6.9.3,13.9-4.5,20-1.9,2.3-1.5,6-1.4,9.2,0,1.1.1,2.1,1.7,1.4,3.3-1.7,2.3,1.2,2.1,2.3q-2,7.2-4.2,14.4c-.7,2.3-1.9,1.7-3.2.5a7.6,7.6,0,0,1-2.1-6.4,48.4,48.4,0,0,0,.4-8.5c-.2-2.4,1-6.6-2.2-6.7S.2,114.7.2,117c-.1,22.9-.4,45.7,0,68.5.3,13.3,1.5,26.6,5.8,39.4A36.5,36.5,0,0,0,10.9,238c.7,1.4,1.2,3.2,2.2,4.4,5.7,6.9,7.7,15,9.1,23.6,1.7,10.5,4.7,20.8,10.1,30.1.5.7.9,2.1,1.8,2.3v.2H250.3c2.8-1.1,4.4-3.4,5.8-5.8a46.5,46.5,0,0,0,5.1-11.9c2.9-9.5,6.2-18.9,11.1-27.7,3.7-6.8,5.2-14.4,6.3-22C279,228.4,279.8,224.9,277.7,223Z" transform="translate(0)"/><path d="M194.8,212.7v5c-.2,15-7.8,24.4-22.6,26.8s-29.3-1.7-41.3-11.7c-4.3-3.6-7.6-8-6.9-14.2.2-1.8.6-4,2.5-4.5s2.7,1.6,3.7,2.8a13.5,13.5,0,0,1,1.5,2.6c4.6,11.7,14.1,16.2,25.7,17.7a53,53,0,0,0,15.4-.3c9.3-1.6,14-7,14.1-16.4.1-3.2-.4-6.3-.5-9.5s-.6-8-.4-11.9c.1-2-.3-5.4,3-5.3a5.4,5.4,0,0,1,5.5,5.3v.2c.1,4.5,0,9,0,13.4Z" transform="translate(0)"/><path d="M37.9,127.9l.7-10c1.8-4.2,3.1-8.7,6.6-12,.8-.5,1.5-1.4,2.5-1s.9,1.3.3,2c-1,2.6-1.1,4.5,2.6,4.5a20.1,20.1,0,0,1,4.9.8c4.8,1.2,7.5,4,7.6,9.1S60.9,130.5,56,132a10.2,10.2,0,0,1-2.5.6c-8.8,1.8-10.5,4.4-7.8,13.3.6,2,.3,3.9.4,5.8s-.2,1.3-1.1,1.2c-2.1-2.8-1-6.1-1.6-9.2C42.4,138.1,38.6,133.6,37.9,127.9Z" transform="translate(0)"/><path d="M45,152.9l1.1-1.2c1.7.8,1.8,2.7,2.6,4.1,3.2,5,7.5,7.3,13.5,8.1,12.9,1.8,22.7-1.8,31.3-11.9s12.2-18.5,17.9-27.9c2.2-3.6,1.7-8,.9-12.2-.3-1.4-.3-3.6,1.3-3.8s2.6,1.7,2.7,3.4.8,4.9.1,7c-3.3,9.5-5.4,19.5-12.6,27.3s-12.8,14-20.1,20.1-20.7,5.3-27,.6a25.8,25.8,0,0,0-4.4-2.2C47.6,161.9,44.7,158.4,45,152.9Z" transform="translate(0)"/><path d="M48,106.9c-.6-1.5-1.7-1.1-2.8-1C56.7,89.4,76.5,84,94.5,92.6a125.3,125.3,0,0,1,11.2,6.5c2.7,1.8,3.6,3.7,1.4,6.5s1.2,6.4,2.6,9.7c-4.1,1.1-6.2-.5-7.6-3.9-7-17-25.7-23.5-41.5-14.7C55.8,99.4,51.1,102.1,48,106.9Z" transform="translate(0)"/><path d="M45,280.8v-1.3c8.3,1.5,15,6.1,21.6,10.9,1,.7,1.9,1.8,1.2,2.9s-2.1,0-2.9-.5C58.4,288.6,50.8,286.1,45,280.8Z" transform="translate(0)"/><path d="M277.7,223c-5.3-4.9-4.6-11.1-4.8-17.1-.7-20.3.3-40.7-1-61a88.5,88.5,0,0,0-3-17.7c-.9-2.9-1.7-5.4-5.4-7s.2-6-2.1-9.1a116.2,116.2,0,0,1-21.7-47.8c-.8-3.9-2.4-7.7-5.9-10.1a22,22,0,0,1-6.6-7.3c-7.5-12-16.4-22.7-28.7-30a37.4,37.4,0,0,1-5.9-4.6c-4.9-4.4-10-8.3-16.8-9.4A2.1,2.1,0,0,1,173.9,0h-20c-.5,1.4-1.8,1.3-2.9,1.5-20.4,4.1-40.8,7.6-60.6,14.4C84.3,18,78.3,20,73.8,24.6,59.5,39.3,47.5,55.9,33.7,71,29,76.1,25.5,82.1,20.9,88.4c-1.6-4.2.5-8.9-4.8-10.8,0,2.4.1,4.5,0,6.7-.4,6.9.3,13.9-4.5,20-1.9,2.3-1.5,6-1.4,9.2,0,1.1.1,2.1,1.7,1.4,3.3-1.7,2.3,1.2,2.1,2.3q-2,7.2-4.2,14.4c-.7,2.3-1.9,1.7-3.2.5a7.6,7.6,0,0,1-2.1-6.4,48.4,48.4,0,0,0,.4-8.5c-.2-2.4,1-6.6-2.2-6.7S.2,114.7.2,117c-.1,22.9-.4,45.7,0,68.5.3,13.3,1.5,26.6,5.8,39.4A36.5,36.5,0,0,0,10.9,238c.7,1.4,1.2,3.2,2.2,4.4,5.7,6.9,7.7,15,9.1,23.6,1.7,10.5,4.7,20.8,10.1,30.1.7,1,1.1,3.3,3.1,1.9s1.4-2.6.5-4L34,291c-4.8-7.8-5.7-16.7-7-26.4,4.7,2.2,7.2,5.3,9.5,8.7s4.1,6.7,8.5,7.5c.6-.4.6-.8.1-1.3a37.2,37.2,0,0,0-12.8-18.3c-3.9-3.2-5.2-7.9-6.4-12.7-2.1-9.2-3.3-18.6-6.5-27.6-7.7-22.2-11.8-44.9-9.3-68.5.9-8.4.9-16.9,4.1-24.9s6-18,6.3-27.6c0-4.8,2.5-8.3,5.7-11.7C42.6,71.4,57,53,71.7,34.7c6.4-8,13.9-13.2,24.2-13.9,2.4-.2,4.9-.5,6.4-2.4,3.9-5,9.7-6,15.4-7.2l14.7-2.8c10.9-2.1,21.8-4.4,33-4.5,8.2,0,16,1.2,21.4,8.5,1.1,1.5,3.1,1.9,4.6,2.8,8.8,5.2,17.7,9.8,22,20.3,3.2,7.9,7,15.7,13.9,21.6a22.5,22.5,0,0,1,8.5,15.6c-3.7-1.7-3.5-6.9-8-6.8-1.4,3.9,1.2,6.7,3.1,9.3,11.1,15.3,18.8,32.2,24.2,50.2,6.2,20.5,12.8,41.1,14,62.7.8,14.2-.4,28.6,1.8,42.8.6,3.7-.4,7.4-1.7,10.8-6.8,17.2-12.1,34.9-18.3,52.3-.5,1.4-1.5,2.7-.6,4.6,2.8-1.1,4.4-3.4,5.8-5.8a46.5,46.5,0,0,0,5.1-11.9c2.9-9.5,6.2-18.9,11.1-27.7,3.7-6.8,5.2-14.4,6.3-22C279,228.4,279.8,224.9,277.7,223ZM11,211.4c.4,5.6,3,10.5,4.7,15.7s5.1,9.6,5.3,15.6c-3.2-1.9-5.1-4.4-7-6.8-2.9-6.5-4-13.5-5.9-20.2s-1.5-12.5-2.2-18.8l1.3-.3C10.7,200.8,10.6,206.2,11,211.4Zm256.1-58.6c-3.2-3.6-5.3-20.1-2.9-26.6C268.6,134.5,267.6,143.5,267.1,152.8Z" transform="translate(0)"/><path d="M238.6,106.8c-4.4-11.6-9.1-23.5-17.6-33.2-1.9-2.1-3.5-4.4-5.3-6.6s-4.4-5-6.2-7.7C202.7,49,193,46.7,181.6,48.4c-3.2.4-5,1.7-6.1,4.8-1.8,5.4-3.6,11.2-8.6,14.4-7.3,4.8-10.6,12.1-13.9,19.6-3.9,9-3.5,17.7,3,25.7a181.8,181.8,0,0,0,14.9,15.5c14.7,10.2,31.3,11.3,48.3,8.8C233.7,135.1,243.6,120.1,238.6,106.8Zm-26.1,28.1c-14.1,1-27-2.4-39.1-9.7a13.8,13.8,0,0,1-4.5-4.5c-3.8-5.3-7.3-10.8-11.5-15.7A15.2,15.2,0,0,1,156,87.4c6-10.3,12.3-20.5,23.7-26a34.6,34.6,0,0,0,9.1-6.1c2.9-2.9,5.4-2.6,8.3-.5l2.1,1.3c6.9,5.2,6.7,7.9-1.2,11.4a6.4,6.4,0,0,0-3.9,4.8c-2,10,.7,14,10.6,15.9l3,.4c9.2,1,10.2.1,10.8-8.9a28.3,28.3,0,0,1,1.1-3.1c4.8,9.5,9.9,17.4,13.3,26.3C240.1,121.2,225.2,133.9,212.5,134.9Z" transform="translate(0)"/></svg>