<svg id="Layer_1" data-name="Layer 1" xmlns="http://www.w3.org/2000/svg" viewBox="0 0 831 830.9"><defs><style>.cls-1{fill:#fff;}</style></defs><path class="cls-1" d="M512,428.9A83.1,83.1,0,1,1,428.9,512,83.2,83.2,0,0,1,512,428.9m0-83.1A166.2,166.2,0,1,0,678.2,512,166.2,166.2,0,0,0,512,345.8m0-83.1a41.5,41.5,0,0,1-41.5-41.5V138.1a41.5,41.5,0,0,1,83,0v83.1A41.4,41.4,0,0,1,512,262.7m205.7,85.2A41.5,41.5,0,0,1,688.3,277l58.8-58.8A41.6,41.6,0,0,1,805.9,277l-58.8,58.8a41.9,41.9,0,0,1-29.4,12.1M886,553.6H802.9a41.6,41.6,0,0,1,0-83.1H886a41.6,41.6,0,0,1,0,83.1M776.4,818A41.6,41.6,0,0,1,747,805.8L688.2,747A41.5,41.5,0,0,1,747,688.3L805.8,747a41.6,41.6,0,0,1-29.4,71M511.9,927.5A41.5,41.5,0,0,1,470.4,886V802.9a41.5,41.5,0,0,1,83,0V886a41.5,41.5,0,0,1-41.5,41.5M247.5,817.9A41.5,41.5,0,0,1,218.1,747l58.8-58.8A41.6,41.6,0,0,1,335.7,747l-58.8,58.8a41.5,41.5,0,0,1-29.4,12.1M221.1,553.4H138a41.5,41.5,0,0,1,0-83h83.1a41.5,41.5,0,1,1,0,83m85.3-205.6A41.6,41.6,0,0,1,277,335.6l-58.8-58.7a41.5,41.5,0,0,1-.2-58.6l.2-.2a41.6,41.6,0,0,1,58.8,0l58.8,58.8a41.6,41.6,0,0,1-29.4,70.9" transform="translate(-96.5 -96.6)"/></svg>